<?xml version="1.0" encoding="UTF-8"?>
<svg version="1.1" xmlns="http://www.w3.org/2000/svg" width="400" height="400">
<path d="M0 0 C0.98774414 0.23605957 1.97548828 0.47211914 2.99316406 0.71533203 C53.77063214 13.34050885 98.32875717 45.47616698 125.8125 90.0625 C145.30876006 122.5690117 155.47886489 157.73183888 155.3125 195.6875 C155.31034485 196.5725119 155.3081897 197.4575238 155.30596924 198.36935425 C155.25604622 211.13824945 154.92401568 223.51842006 152 236 C151.70198486 237.33973877 151.70198486 237.33973877 151.39794922 238.70654297 C142.20508987 279.36859123 121.80299508 313.08991829 92.6875 342.4375 C91.96844482 343.1636853 91.96844482 343.1636853 91.23486328 343.90454102 C83.04886933 352.05228266 73.73990532 358.72172509 64 364.875 C63.18055908 365.39312256 62.36111816 365.91124512 61.5168457 366.44506836 C53.9218979 371.1742195 46.07562333 375.16984722 38 379 C37.08476562 379.48597656 36.16953125 379.97195313 35.2265625 380.47265625 C14.40446513 390.32912123 -10.61567328 396.00668583 -33.65234375 396.23828125 C-34.4612355 396.24812042 -35.27012726 396.25795959 -36.10353088 396.26809692 C-69.51872675 396.59047432 -101.53218766 392.58871423 -131.75 377.25 C-132.43046387 376.90565918 -133.11092773 376.56131836 -133.81201172 376.20654297 C-145.2764131 370.35051077 -156.00516608 363.89047719 -166.33544922 356.21337891 C-167.53123611 355.34170673 -168.74336771 354.4922937 -169.96533203 353.65771484 C-171.67615741 352.48466335 -173.34227333 351.24696254 -175 350 C-175 349.34 -175 348.68 -175 348 C-175.680625 347.835 -176.36125 347.67 -177.0625 347.5 C-180.75987165 345.61198043 -182.67864812 343.11346676 -185.3046875 339.953125 C-187.31357825 337.63873474 -189.59901453 335.89551484 -192 334 C-197 328.7107438 -197 328.7107438 -197 326 C-197.66 326 -198.32 326 -199 326 C-202 322.53846154 -202 322.53846154 -202 320 C-202.66 320 -203.32 320 -204 320 C-205.41015625 318.0859375 -205.41015625 318.0859375 -207.0625 315.375 C-209.41729519 311.54967918 -211.81186726 307.76850816 -214.30200195 304.02978516 C-219.59764954 296.02084404 -223.84687954 287.64450413 -228 279 C-228.48984375 278.07960938 -228.9796875 277.15921875 -229.484375 276.2109375 C-239.37738026 255.25204491 -245.00365243 230.42870962 -245.23828125 207.25 C-245.24812042 206.44252319 -245.25795959 205.63504639 -245.26809692 204.80310059 C-245.44449192 186.55856834 -245.26737316 168.84760661 -241 151 C-240.76394043 150.01225586 -240.52788086 149.02451172 -240.28466797 148.00683594 C-227.2880626 95.73551143 -194.39639844 52.43124954 -149 24 C-148.10087891 23.43200684 -148.10087891 23.43200684 -147.18359375 22.85253906 C-128.18514302 11.0246699 -106.77337343 3.72471677 -85 -1 C-84.24170898 -1.17644043 -83.48341797 -1.35288086 -82.70214844 -1.53466797 C-56.8095529 -7.38980667 -25.65139632 -6.13326383 0 0 Z " fill="#FF7800" transform="translate(245,4)"/>
<path d="M0 0 C0.33 10.56 0.66 21.12 1 32 C2.98 29.36 4.96 26.72 7 24 C18.85805726 10.47288722 34.82774718 1.08795859 53.03955078 -0.13720703 C73.43075439 -1.18234914 91.83866208 4.01788442 107.44433594 17.60864258 C120.24361114 29.33209962 130.04603888 46.48077046 131.12744141 64.07324219 C131.36617254 70.67276671 131.24134338 77.1960836 130.48730469 83.75878906 C130.39632507 84.55673889 130.30534546 85.35468872 130.21160889 86.17681885 C130.14177795 86.77846863 130.07194702 87.38011841 130 88 C137.18358746 80.83966517 144.36441033 73.6765703 151.54179478 66.5100174 C154.87524325 63.18176961 158.20960794 59.85445102 161.54614258 56.52929688 C164.77087642 53.31549247 167.99310389 50.09919411 171.21366692 46.88121033 C172.43786089 45.65885258 173.66292914 44.43736973 174.88891792 43.21681213 C180.60863438 37.52141022 186.29622732 31.84409387 191.53862 25.69836426 C195.30988201 21.31553666 199.4436483 17.25199667 203.50732422 13.14257812 C204.59471111 12.03845211 205.67667965 10.92896607 206.75341797 9.81445312 C208.32627604 8.18699841 209.91481431 6.57646637 211.5078125 4.96875 C211.9850174 4.46887573 212.46222229 3.96900146 212.95388794 3.45397949 C216.32973146 0.09916487 216.87890497 0 222 0 C222 30.36 222 60.72 222 92 C231.57 92 241.14 92 251 92 C251 99.26 251 106.52 251 114 C241.43 114 231.86 114 222 114 C222 123.57 222 133.14 222 143 C213.75 143 205.5 143 197 143 C197 133.43 197 123.86 197 114 C186.7069346 113.92722427 176.41566636 113.89274741 166.12238312 113.92484188 C161.34220557 113.93823326 156.56324552 113.93514018 151.78320312 113.89379883 C147.16602841 113.85448212 142.55076925 113.85921915 137.93357849 113.89392281 C136.17620284 113.89950234 134.41870299 113.88946674 132.66151428 113.86323357 C122.93569434 113.4608506 122.93569434 113.4608506 114.19647217 116.98423767 C112.20114955 119.22710148 110.61332683 121.47673487 109 124 C92.35485683 138.70611471 73.30397922 144.53284486 51.42089844 143.22314453 C35.41857513 141.74814216 20.2221727 133.23721583 9 122 C6.36 118.7 3.72 115.4 1 112 C0.67 122.23 0.34 132.46 0 143 C-8.25 143 -16.5 143 -25 143 C-25 104.06 -25 65.12 -25 25 C-32.92 25 -40.84 25 -49 25 C-35.02893291 4.04339936 -25.57984689 -2.571519 0 0 Z " fill="#FFD5B0" transform="translate(100,128)"/>
<path d="M0 0 C0 30.36 0 60.72 0 92 C9.57 92 19.14 92 29 92 C29 99.26 29 106.52 29 114 C19.43 114 9.86 114 0 114 C0 123.57 0 133.14 0 143 C-8.25 143 -16.5 143 -25 143 C-25 133.1 -25 123.2 -25 113 C-54.7 113 -84.4 113 -115 113 C-108.26175366 105.1387126 -108.26175366 105.1387126 -105.37890625 102.31640625 C-104.44014648 101.38924805 -104.44014648 101.38924805 -103.48242188 100.44335938 C-102.20641994 99.19331882 -100.93037852 97.94331857 -99.65429688 96.69335938 C-99.02716797 96.07396484 -98.40003906 95.45457031 -97.75390625 94.81640625 C-97.20033447 94.27443604 -96.6467627 93.73246582 -96.07641602 93.17407227 C-94.30874294 91.32326348 -92.65236325 89.4339065 -90.98999023 87.48999023 C-86.57014619 82.41200744 -81.8048252 77.69197562 -77.02885437 72.95368958 C-75.36886941 71.30666117 -73.71219765 69.65636048 -72.05627441 68.00524902 C-67.94587777 63.90810448 -63.83000966 59.81647096 -59.71429443 55.72467041 C-56.22481779 52.25504276 -52.73747892 48.78329203 -49.25285339 45.30879211 C-47.63373229 43.69607417 -46.01159216 42.08643782 -44.38928223 40.47692871 C-39.59362435 35.70497524 -34.90914043 30.89117776 -30.50848389 25.7467041 C-26.71404517 21.35304651 -22.57286884 17.26869974 -18.49267578 13.14257812 C-17.40528889 12.03845211 -16.32332035 10.92896607 -15.24658203 9.81445312 C-13.67372396 8.18699841 -12.08518569 6.57646637 -10.4921875 4.96875 C-10.0149826 4.46887573 -9.53777771 3.96900146 -9.04611206 3.45397949 C-5.67026854 0.09916487 -5.12109503 0 0 0 Z " fill="#FFFEFD" transform="translate(322,128)"/>
<path d="M0 0 C12.4135155 9.10001201 18.3007286 20.1187994 21 35 C22.39357911 45.77037567 18.65166156 57.60257839 12.6875 66.5625 C5.25729062 76.10647584 -4.80850067 82.86244202 -16.6875 85.625 C-31.77620809 87.33315563 -43.84929708 83.56223315 -55.75 74.1875 C-63.45263267 67.22794483 -69.40829155 56.43004459 -70.14038086 46 C-70.86911054 29.1937853 -67.97330736 17.93998727 -56.34765625 5.1875 C-40.37332264 -9.81040735 -18.46465034 -10.05663992 0 0 Z " fill="#FF7801" transform="translate(185,160)"/>
<path d="M0 0 C0.33 10.56 0.66 21.12 1 32 C2.98 29.36 4.96 26.72 7 24 C18.85805726 10.47288722 34.82774718 1.08795859 53.03955078 -0.13720703 C73.43075439 -1.18234914 91.83866208 4.01788442 107.44433594 17.60864258 C119.28453358 28.45363545 129.36123428 44.42909066 130.1953125 60.84375 C130.13020833 64.22916667 130.06510417 67.61458333 130 71 C122.08 71 114.16 71 106 71 C105.195625 66.42125 105.195625 66.42125 104.375 61.75 C101.11817277 44.82598342 93.36071985 32.07311467 79.21484375 21.9765625 C65.46534422 13.52304274 49.76390043 10.89061303 34.125 14.5625 C18.19428719 18.63152225 6.76788165 27.19289374 -2 41 C-10.51975492 56.41040942 -12.06020656 72.56259772 -7.9921875 89.62890625 C-6.2792383 95.4488872 -4.21390628 101.52107714 -0.93823242 106.66845703 C0.41005847 110.01901076 0.24603959 113.27485327 0.1953125 116.828125 C0.1924826 117.57713074 0.18965271 118.32613647 0.18673706 119.09783936 C0.1755726 121.48205776 0.15047531 123.86589579 0.125 126.25 C0.11496535 127.86978623 0.10584035 129.48957836 0.09765625 131.109375 C0.07734987 135.07317989 0.0381954 139.03616589 0 143 C-8.25 143 -16.5 143 -25 143 C-25 104.06 -25 65.12 -25 25 C-32.92 25 -40.84 25 -49 25 C-35.02893291 4.04339936 -25.57984689 -2.571519 0 0 Z " fill="#FFFDFC" transform="translate(100,128)"/>
<path d="M0 0 C0 13.86 0 27.72 0 42 C-13.53 42 -27.06 42 -41 42 C-39.23349768 38.46699535 -38.00720644 36.7585091 -35.30053711 34.05761719 C-34.54312729 33.29713074 -33.78571747 32.53664429 -33.00535583 31.75311279 C-31.77873985 30.53727509 -31.77873985 30.53727509 -30.52734375 29.296875 C-29.68909561 28.45908508 -28.85084747 27.62129517 -27.98719788 26.75811768 C-26.21673086 24.99066956 -24.44383622 23.22565035 -22.66870117 21.46289062 C-19.93935427 18.75184184 -17.21813568 16.0328345 -14.49804688 13.3125 C-12.77911798 11.5984847 -11.05973265 9.884927 -9.33984375 8.171875 C-8.11019142 6.94389191 -8.11019142 6.94389191 -6.85569763 5.69110107 C-6.10143997 4.94322327 -5.34718231 4.19534546 -4.57006836 3.42480469 C-3.90325546 2.76180359 -3.23644257 2.09880249 -2.54942322 1.41571045 C-1 0 -1 0 0 0 Z " fill="#FF7D09" transform="translate(297,179)"/>
<path d="M0 0 C2.55934601 1.279673 2.6989233 2.24201036 3.6875 4.875 C3.95949219 5.57367188 4.23148438 6.27234375 4.51171875 6.9921875 C5 9 5 9 4 12 C2.35 8.37 0.7 4.74 -1 1 C-0.67 0.67 -0.34 0.34 0 0 Z " fill="#FFCEA2" transform="translate(199,173)"/>
</svg>
